<svg width="990" height="109" viewBox="0 0 990 109" fill="none" xmlns="http://www.w3.org/2000/svg">
<mask id="path-1-outside-1_375_1018" maskUnits="userSpaceOnUse" x="142" y="6" width="706" height="87" fill="black">
<rect fill="white" x="142" y="6" width="706" height="87"/>
<path d="M168.75 88.75V21.25H146.25V10H213.75V21.25H191.25V88.75H168.75ZM236.25 88.75V77.5H225V10H247.5V77.5H281.25V10H303.75V77.5H292.5V88.75H236.25ZM348.75 88.75V21.25H326.25V10H393.75V21.25H371.25V88.75H348.75ZM416.25 88.75V77.5H405V21.25H416.25V10H472.5V21.25H483.75V77.5H472.5V88.75H416.25ZM427.5 77.5H461.25V21.25H427.5V77.5ZM495 88.75V10H562.5V21.25H573.75V55H551.25V66.25H562.5V77.5H573.75V88.75H540V77.5H528.75V66.25H517.5V88.75H495ZM517.5 55H540V43.75H551.25V21.25H517.5V55ZM596.25 88.75V77.5H618.75V21.25H596.25V10H663.75V21.25H641.25V77.5H663.75V88.75H596.25ZM675 88.75V32.5H686.25V21.25H697.5V10H731.25V21.25H742.5V32.5H753.75V88.75H731.25V66.25H697.5V88.75H675ZM697.5 55H731.25V32.5H720V21.25H708.75V32.5H697.5V55ZM776.25 88.75V10H798.75V77.5H843.75V88.75H776.25Z"/>
</mask>
<path d="M168.75 88.75V21.25H146.25V10H213.75V21.25H191.25V88.75H168.75ZM236.25 88.75V77.5H225V10H247.5V77.5H281.25V10H303.75V77.5H292.5V88.75H236.25ZM348.75 88.75V21.25H326.25V10H393.75V21.25H371.25V88.75H348.75ZM416.25 88.75V77.5H405V21.25H416.25V10H472.5V21.25H483.75V77.5H472.5V88.75H416.25ZM427.5 77.5H461.25V21.25H427.5V77.5ZM495 88.75V10H562.5V21.25H573.75V55H551.25V66.25H562.5V77.5H573.75V88.75H540V77.5H528.75V66.25H517.5V88.75H495ZM517.5 55H540V43.75H551.25V21.25H517.5V55ZM596.25 88.75V77.5H618.75V21.25H596.25V10H663.75V21.25H641.25V77.5H663.75V88.75H596.25ZM675 88.75V32.5H686.25V21.25H697.5V10H731.25V21.25H742.5V32.5H753.75V88.75H731.25V66.25H697.5V88.75H675ZM697.5 55H731.25V32.5H720V21.25H708.75V32.5H697.5V55ZM776.25 88.75V10H798.75V77.5H843.75V88.75H776.25Z" fill="#F9CC08"/>
<path d="M168.75 88.75H164.75V92.75H168.75V88.75ZM168.75 21.25H172.75V17.25H168.75V21.25ZM146.25 21.25H142.25V25.25H146.25V21.25ZM146.25 10V6H142.25V10H146.25ZM213.75 10H217.75V6H213.75V10ZM213.75 21.25V25.25H217.75V21.25H213.75ZM191.25 21.25V17.25H187.25V21.25H191.25ZM191.25 88.75V92.75H195.25V88.75H191.25ZM168.75 88.75H172.75V21.25H168.75H164.75V88.75H168.75ZM168.75 21.25V17.25H146.25V21.25V25.25H168.75V21.25ZM146.25 21.25H150.25V10H146.25H142.25V21.25H146.25ZM146.25 10V14H213.75V10V6H146.25V10ZM213.75 10H209.75V21.25H213.75H217.75V10H213.75ZM213.75 21.25V17.25H191.25V21.25V25.25H213.75V21.25ZM191.25 21.25H187.25V88.75H191.25H195.25V21.25H191.25ZM191.25 88.75V84.75H168.75V88.75V92.75H191.25V88.75ZM236.25 88.75H232.25V92.75H236.25V88.75ZM236.25 77.5H240.25V73.5H236.25V77.5ZM225 77.5H221V81.5H225V77.5ZM225 10V6H221V10H225ZM247.5 10H251.5V6H247.5V10ZM247.5 77.5H243.5V81.5H247.5V77.5ZM281.25 77.5V81.5H285.25V77.5H281.25ZM281.25 10V6H277.25V10H281.25ZM303.75 10H307.75V6H303.75V10ZM303.75 77.5V81.5H307.75V77.5H303.75ZM292.5 77.5V73.5H288.5V77.5H292.5ZM292.5 88.75V92.75H296.5V88.75H292.5ZM236.25 88.75H240.25V77.5H236.25H232.25V88.75H236.25ZM236.25 77.5V73.5H225V77.5V81.5H236.25V77.5ZM225 77.5H229V10H225H221V77.5H225ZM225 10V14H247.5V10V6H225V10ZM247.5 10H243.5V77.5H247.5H251.5V10H247.5ZM247.5 77.5V81.5H281.25V77.5V73.5H247.5V77.5ZM281.25 77.5H285.25V10H281.25H277.25V77.5H281.25ZM281.25 10V14H303.75V10V6H281.25V10ZM303.75 10H299.75V77.5H303.75H307.75V10H303.75ZM303.75 77.5V73.5H292.5V77.5V81.5H303.75V77.5ZM292.5 77.5H288.5V88.75H292.5H296.5V77.5H292.5ZM292.5 88.75V84.75H236.25V88.75V92.75H292.5V88.75ZM348.75 88.75H344.75V92.75H348.75V88.75ZM348.75 21.25H352.75V17.25H348.75V21.25ZM326.25 21.25H322.25V25.25H326.25V21.25ZM326.25 10V6H322.25V10H326.25ZM393.75 10H397.75V6H393.75V10ZM393.75 21.25V25.25H397.75V21.25H393.75ZM371.25 21.25V17.25H367.25V21.25H371.25ZM371.25 88.75V92.75H375.25V88.75H371.25ZM348.75 88.75H352.75V21.25H348.75H344.75V88.75H348.75ZM348.75 21.25V17.25H326.25V21.25V25.25H348.75V21.25ZM326.25 21.25H330.25V10H326.25H322.25V21.25H326.25ZM326.25 10V14H393.75V10V6H326.25V10ZM393.75 10H389.75V21.25H393.75H397.75V10H393.75ZM393.75 21.25V17.25H371.25V21.25V25.25H393.75V21.25ZM371.25 21.25H367.25V88.75H371.25H375.25V21.25H371.25ZM371.25 88.75V84.75H348.75V88.75V92.75H371.25V88.75ZM416.25 88.75H412.25V92.75H416.25V88.75ZM416.25 77.5H420.25V73.5H416.25V77.5ZM405 77.5H401V81.5H405V77.5ZM405 21.25V17.25H401V21.25H405ZM416.25 21.25V25.25H420.25V21.25H416.25ZM416.25 10V6H412.25V10H416.25ZM472.5 10H476.5V6H472.5V10ZM472.5 21.25H468.5V25.25H472.5V21.25ZM483.75 21.25H487.75V17.25H483.75V21.25ZM483.75 77.5V81.5H487.75V77.5H483.75ZM472.5 77.5V73.5H468.5V77.5H472.5ZM472.5 88.75V92.75H476.5V88.75H472.5ZM427.5 77.5H423.5V81.5H427.5V77.5ZM461.25 77.5V81.5H465.25V77.5H461.25ZM461.25 21.25H465.25V17.25H461.25V21.25ZM427.5 21.25V17.25H423.5V21.25H427.5ZM416.25 88.75H420.25V77.5H416.25H412.25V88.75H416.25ZM416.25 77.5V73.5H405V77.5V81.5H416.25V77.5ZM405 77.5H409V21.25H405H401V77.5H405ZM405 21.25V25.25H416.25V21.25V17.25H405V21.25ZM416.25 21.25H420.25V10H416.25H412.25V21.25H416.25ZM416.25 10V14H472.5V10V6H416.25V10ZM472.5 10H468.5V21.25H472.5H476.5V10H472.5ZM472.5 21.25V25.25H483.75V21.25V17.25H472.5V21.25ZM483.75 21.25H479.75V77.5H483.75H487.75V21.25H483.75ZM483.75 77.5V73.5H472.5V77.5V81.5H483.75V77.5ZM472.5 77.5H468.5V88.75H472.5H476.5V77.5H472.5ZM472.5 88.75V84.75H416.25V88.75V92.75H472.5V88.75ZM427.5 77.5V81.5H461.25V77.5V73.5H427.5V77.5ZM461.25 77.5H465.25V21.25H461.25H457.25V77.5H461.25ZM461.25 21.25V17.25H427.5V21.25V25.25H461.25V21.25ZM427.5 21.25H423.5V77.5H427.5H431.5V21.25H427.5ZM495 88.75H491V92.75H495V88.75ZM495 10V6H491V10H495ZM562.5 10H566.5V6H562.5V10ZM562.5 21.25H558.5V25.25H562.5V21.25ZM573.75 21.25H577.75V17.25H573.75V21.25ZM573.75 55V59H577.75V55H573.75ZM551.25 55V51H547.25V55H551.25ZM551.25 66.25H547.25V70.25H551.25V66.25ZM562.5 66.25H566.5V62.25H562.5V66.25ZM562.5 77.5H558.5V81.5H562.5V77.5ZM573.75 77.5H577.75V73.5H573.75V77.5ZM573.75 88.75V92.75H577.75V88.75H573.75ZM540 88.75H536V92.75H540V88.75ZM540 77.5H544V73.5H540V77.5ZM528.75 77.5H524.75V81.5H528.75V77.5ZM528.75 66.25H532.75V62.25H528.75V66.25ZM517.5 66.25V62.25H513.5V66.25H517.5ZM517.5 88.75V92.75H521.5V88.75H517.5ZM517.5 55H513.5V59H517.5V55ZM540 55V59H544V55H540ZM540 43.75V39.75H536V43.75H540ZM551.25 43.75V47.75H555.25V43.75H551.25ZM551.25 21.25H555.25V17.25H551.25V21.25ZM517.5 21.25V17.25H513.5V21.25H517.5ZM495 88.75H499V10H495H491V88.75H495ZM495 10V14H562.5V10V6H495V10ZM562.5 10H558.5V21.25H562.5H566.5V10H562.5ZM562.5 21.25V25.25H573.75V21.25V17.25H562.5V21.25ZM573.75 21.25H569.75V55H573.75H577.75V21.25H573.75ZM573.75 55V51H551.25V55V59H573.75V55ZM551.25 55H547.25V66.25H551.25H555.25V55H551.25ZM551.25 66.25V70.25H562.5V66.25V62.25H551.25V66.25ZM562.5 66.25H558.5V77.5H562.5H566.5V66.25H562.5ZM562.5 77.5V81.5H573.75V77.5V73.5H562.5V77.5ZM573.75 77.5H569.75V88.75H573.75H577.75V77.5H573.75ZM573.75 88.75V84.75H540V88.75V92.75H573.75V88.75ZM540 88.75H544V77.5H540H536V88.75H540ZM540 77.5V73.5H528.75V77.5V81.5H540V77.5ZM528.75 77.5H532.75V66.25H528.75H524.75V77.5H528.75ZM528.75 66.25V62.25H517.5V66.25V70.25H528.75V66.25ZM517.5 66.25H513.5V88.75H517.5H521.5V66.25H517.5ZM517.5 88.75V84.75H495V88.75V92.75H517.5V88.75ZM517.5 55V59H540V55V51H517.5V55ZM540 55H544V43.75H540H536V55H540ZM540 43.75V47.75H551.25V43.75V39.75H540V43.75ZM551.25 43.75H555.25V21.25H551.25H547.25V43.75H551.25ZM551.25 21.25V17.25H517.5V21.25V25.25H551.25V21.25ZM517.5 21.25H513.5V55H517.5H521.5V21.25H517.5ZM596.25 88.75H592.25V92.75H596.25V88.75ZM596.25 77.5V73.5H592.25V77.5H596.25ZM618.75 77.5V81.5H622.75V77.5H618.75ZM618.75 21.25H622.75V17.25H618.75V21.25ZM596.25 21.25H592.25V25.25H596.25V21.25ZM596.25 10V6H592.25V10H596.25ZM663.75 10H667.75V6H663.75V10ZM663.75 21.25V25.25H667.75V21.25H663.75ZM641.25 21.25V17.25H637.25V21.25H641.25ZM641.25 77.5H637.25V81.5H641.25V77.5ZM663.75 77.5H667.75V73.5H663.75V77.5ZM663.75 88.75V92.75H667.75V88.75H663.75ZM596.25 88.75H600.25V77.5H596.25H592.25V88.75H596.25ZM596.25 77.5V81.5H618.75V77.5V73.5H596.25V77.5ZM618.75 77.5H622.75V21.25H618.75H614.75V77.5H618.75ZM618.75 21.25V17.25H596.25V21.25V25.25H618.75V21.25ZM596.25 21.25H600.25V10H596.25H592.25V21.25H596.25ZM596.25 10V14H663.75V10V6H596.25V10ZM663.75 10H659.75V21.25H663.75H667.75V10H663.75ZM663.75 21.25V17.25H641.25V21.25V25.25H663.75V21.25ZM641.25 21.25H637.25V77.5H641.25H645.25V21.25H641.25ZM641.25 77.5V81.5H663.75V77.5V73.5H641.25V77.5ZM663.75 77.5H659.75V88.75H663.75H667.75V77.5H663.75ZM663.75 88.75V84.75H596.25V88.75V92.75H663.75V88.75ZM675 88.75H671V92.75H675V88.75ZM675 32.5V28.5H671V32.5H675ZM686.25 32.5V36.5H690.25V32.5H686.25ZM686.25 21.25V17.25H682.25V21.25H686.25ZM697.5 21.25V25.25H701.5V21.25H697.5ZM697.5 10V6H693.5V10H697.5ZM731.25 10H735.25V6H731.25V10ZM731.25 21.25H727.25V25.25H731.25V21.25ZM742.5 21.25H746.5V17.25H742.5V21.25ZM742.5 32.5H738.5V36.5H742.5V32.5ZM753.75 32.5H757.75V28.5H753.75V32.5ZM753.75 88.75V92.75H757.75V88.75H753.75ZM731.25 88.75H727.25V92.75H731.25V88.75ZM731.25 66.25H735.25V62.25H731.25V66.25ZM697.5 66.25V62.25H693.5V66.25H697.5ZM697.5 88.75V92.75H701.5V88.75H697.5ZM697.5 55H693.5V59H697.5V55ZM731.25 55V59H735.25V55H731.25ZM731.25 32.5H735.25V28.5H731.25V32.5ZM720 32.5H716V36.5H720V32.5ZM720 21.25H724V17.25H720V21.25ZM708.75 21.25V17.25H704.75V21.25H708.75ZM708.75 32.5V36.5H712.75V32.5H708.75ZM697.5 32.5V28.5H693.5V32.5H697.5ZM675 88.75H679V32.5H675H671V88.75H675ZM675 32.5V36.5H686.25V32.5V28.5H675V32.5ZM686.25 32.5H690.25V21.25H686.25H682.25V32.5H686.25ZM686.25 21.25V25.25H697.5V21.25V17.25H686.25V21.25ZM697.5 21.25H701.5V10H697.5H693.5V21.25H697.5ZM697.5 10V14H731.25V10V6H697.5V10ZM731.25 10H727.25V21.25H731.25H735.25V10H731.25ZM731.25 21.25V25.25H742.5V21.25V17.25H731.25V21.25ZM742.5 21.25H738.5V32.5H742.5H746.5V21.25H742.5ZM742.5 32.5V36.5H753.75V32.5V28.5H742.5V32.5ZM753.75 32.5H749.75V88.75H753.75H757.75V32.5H753.75ZM753.75 88.75V84.75H731.25V88.75V92.75H753.75V88.75ZM731.25 88.75H735.25V66.25H731.25H727.25V88.75H731.25ZM731.25 66.25V62.25H697.5V66.25V70.25H731.25V66.25ZM697.5 66.25H693.5V88.75H697.5H701.5V66.25H697.5ZM697.5 88.75V84.75H675V88.75V92.75H697.5V88.75ZM697.5 55V59H731.25V55V51H697.5V55ZM731.25 55H735.25V32.5H731.25H727.25V55H731.25ZM731.25 32.5V28.5H720V32.5V36.5H731.25V32.5ZM720 32.5H724V21.25H720H716V32.5H720ZM720 21.25V17.25H708.75V21.25V25.25H720V21.25ZM708.75 21.25H704.75V32.5H708.75H712.75V21.25H708.75ZM708.75 32.5V28.5H697.5V32.5V36.5H708.75V32.5ZM697.5 32.5H693.5V55H697.5H701.5V32.5H697.5ZM776.25 88.75H772.25V92.75H776.25V88.75ZM776.25 10V6H772.25V10H776.25ZM798.75 10H802.75V6H798.75V10ZM798.75 77.5H794.75V81.5H798.75V77.5ZM843.75 77.5H847.75V73.5H843.75V77.5ZM843.75 88.75V92.75H847.75V88.75H843.75ZM776.25 88.75H780.25V10H776.25H772.25V88.75H776.25ZM776.25 10V14H798.75V10V6H776.25V10ZM798.75 10H794.75V77.5H798.75H802.75V10H798.75ZM798.75 77.5V81.5H843.75V77.5V73.5H798.75V77.5ZM843.75 77.5H839.75V88.75H843.75H847.75V77.5H843.75ZM843.75 88.75V84.75H776.25V88.75V92.75H843.75V88.75Z" fill="#0C3A58" mask="url(#path-1-outside-1_375_1018)"/>
</svg>
