<svg width="729" height="146" viewBox="0 0 729 146" fill="none" xmlns="http://www.w3.org/2000/svg">
<g filter="url(#filter0_d_134_141)">
<mask id="path-1-outside-1_134_141" maskUnits="userSpaceOnUse" x="176" y="2" width="39" height="13" fill="black">
<rect fill="white" x="176" y="2" width="39" height="13"/>
<path d="M178.01 4.45898L213.034 3.44824V12.6328L178.273 13.5996L178.01 4.45898Z"/>
</mask>
<path d="M178.01 4.45898L213.034 3.44824V12.6328L178.273 13.5996L178.01 4.45898Z" fill="#DE5A72"/>
<path d="M178.01 4.45898L177.981 3.4594L176.981 3.48825L177.01 4.48782L178.01 4.45898ZM213.034 3.44824H214.034V2.41897L213.005 2.44866L213.034 3.44824ZM213.034 12.6328L213.062 13.6324L214.034 13.6054V12.6328H213.034ZM178.273 13.5996L177.274 13.6284L177.303 14.627L178.301 14.5992L178.273 13.5996ZM178.01 4.45898L178.039 5.45857L213.063 4.44783L213.034 3.44824L213.005 2.44866L177.981 3.4594L178.01 4.45898ZM213.034 3.44824H212.034V12.6328H213.034H214.034V3.44824H213.034ZM213.034 12.6328L213.006 11.6332L178.246 12.6L178.273 13.5996L178.301 14.5992L213.062 13.6324L213.034 12.6328ZM178.273 13.5996L179.273 13.5708L179.009 4.43015L178.01 4.45898L177.01 4.48782L177.274 13.6284L178.273 13.5996Z" fill="#230542" mask="url(#path-1-outside-1_134_141)"/>
</g>
<g filter="url(#filter1_d_134_141)">
<mask id="path-3-outside-2_134_141" maskUnits="userSpaceOnUse" x="2" y="19" width="713" height="113" fill="black">
<rect fill="white" x="2" y="19" width="713" height="113"/>
<path d="M6 128V23H36V38H51V53H66V68H81V23H111V128H81V98H66V83H51V68H36V128H6ZM141 128V113H171V38H141V23H231V38H201V113H231V128H141ZM291 128V113H276V98H261V83H246V23H276V68H291V83H306V68H321V23H351V83H336V98H321V113H306V128H291ZM366 128V23H471V38H396V68H456V83H396V113H471V128H366ZM501 128V113H531V38H501V23H591V38H561V113H591V128H501ZM621 128V113H606V98H636V113H681V83H621V68H606V38H621V23H696V38H711V53H681V38H636V68H696V83H711V113H696V128H621Z"/>
</mask>
<path d="M6 128V23H36V38H51V53H66V68H81V23H111V128H81V98H66V83H51V68H36V128H6ZM141 128V113H171V38H141V23H231V38H201V113H231V128H141ZM291 128V113H276V98H261V83H246V23H276V68H291V83H306V68H321V23H351V83H336V98H321V113H306V128H291ZM366 128V23H471V38H396V68H456V83H396V113H471V128H366ZM501 128V113H531V38H501V23H591V38H561V113H591V128H501ZM621 128V113H606V98H636V113H681V83H621V68H606V38H621V23H696V38H711V53H681V38H636V68H696V83H711V113H696V128H621Z" fill="url(#paint0_linear_134_141)"/>
<path d="M6 128H2V132H6V128ZM6 23V19H2V23H6ZM36 23H40V19H36V23ZM36 38H32V42H36V38ZM51 38H55V34H51V38ZM51 53H47V57H51V53ZM66 53H70V49H66V53ZM66 68H62V72H66V68ZM81 68V72H85V68H81ZM81 23V19H77V23H81ZM111 23H115V19H111V23ZM111 128V132H115V128H111ZM81 128H77V132H81V128ZM81 98H85V94H81V98ZM66 98H62V102H66V98ZM66 83H70V79H66V83ZM51 83H47V87H51V83ZM51 68H55V64H51V68ZM36 68V64H32V68H36ZM36 128V132H40V128H36ZM6 128H10V23H6H2V128H6ZM6 23V27H36V23V19H6V23ZM36 23H32V38H36H40V23H36ZM36 38V42H51V38V34H36V38ZM51 38H47V53H51H55V38H51ZM51 53V57H66V53V49H51V53ZM66 53H62V68H66H70V53H66ZM66 68V72H81V68V64H66V68ZM81 68H85V23H81H77V68H81ZM81 23V27H111V23V19H81V23ZM111 23H107V128H111H115V23H111ZM111 128V124H81V128V132H111V128ZM81 128H85V98H81H77V128H81ZM81 98V94H66V98V102H81V98ZM66 98H70V83H66H62V98H66ZM66 83V79H51V83V87H66V83ZM51 83H55V68H51H47V83H51ZM51 68V64H36V68V72H51V68ZM36 68H32V128H36H40V68H36ZM36 128V124H6V128V132H36V128ZM141 128H137V132H141V128ZM141 113V109H137V113H141ZM171 113V117H175V113H171ZM171 38H175V34H171V38ZM141 38H137V42H141V38ZM141 23V19H137V23H141ZM231 23H235V19H231V23ZM231 38V42H235V38H231ZM201 38V34H197V38H201ZM201 113H197V117H201V113ZM231 113H235V109H231V113ZM231 128V132H235V128H231ZM141 128H145V113H141H137V128H141ZM141 113V117H171V113V109H141V113ZM171 113H175V38H171H167V113H171ZM171 38V34H141V38V42H171V38ZM141 38H145V23H141H137V38H141ZM141 23V27H231V23V19H141V23ZM231 23H227V38H231H235V23H231ZM231 38V34H201V38V42H231V38ZM201 38H197V113H201H205V38H201ZM201 113V117H231V113V109H201V113ZM231 113H227V128H231H235V113H231ZM231 128V124H141V128V132H231V128ZM291 128H287V132H291V128ZM291 113H295V109H291V113ZM276 113H272V117H276V113ZM276 98H280V94H276V98ZM261 98H257V102H261V98ZM261 83H265V79H261V83ZM246 83H242V87H246V83ZM246 23V19H242V23H246ZM276 23H280V19H276V23ZM276 68H272V72H276V68ZM291 68H295V64H291V68ZM291 83H287V87H291V83ZM306 83V87H310V83H306ZM306 68V64H302V68H306ZM321 68V72H325V68H321ZM321 23V19H317V23H321ZM351 23H355V19H351V23ZM351 83V87H355V83H351ZM336 83V79H332V83H336ZM336 98V102H340V98H336ZM321 98V94H317V98H321ZM321 113V117H325V113H321ZM306 113V109H302V113H306ZM306 128V132H310V128H306ZM291 128H295V113H291H287V128H291ZM291 113V109H276V113V117H291V113ZM276 113H280V98H276H272V113H276ZM276 98V94H261V98V102H276V98ZM261 98H265V83H261H257V98H261ZM261 83V79H246V83V87H261V83ZM246 83H250V23H246H242V83H246ZM246 23V27H276V23V19H246V23ZM276 23H272V68H276H280V23H276ZM276 68V72H291V68V64H276V68ZM291 68H287V83H291H295V68H291ZM291 83V87H306V83V79H291V83ZM306 83H310V68H306H302V83H306ZM306 68V72H321V68V64H306V68ZM321 68H325V23H321H317V68H321ZM321 23V27H351V23V19H321V23ZM351 23H347V83H351H355V23H351ZM351 83V79H336V83V87H351V83ZM336 83H332V98H336H340V83H336ZM336 98V94H321V98V102H336V98ZM321 98H317V113H321H325V98H321ZM321 113V109H306V113V117H321V113ZM306 113H302V128H306H310V113H306ZM306 128V124H291V128V132H306V128ZM366 128H362V132H366V128ZM366 23V19H362V23H366ZM471 23H475V19H471V23ZM471 38V42H475V38H471ZM396 38V34H392V38H396ZM396 68H392V72H396V68ZM456 68H460V64H456V68ZM456 83V87H460V83H456ZM396 83V79H392V83H396ZM396 113H392V117H396V113ZM471 113H475V109H471V113ZM471 128V132H475V128H471ZM366 128H370V23H366H362V128H366ZM366 23V27H471V23V19H366V23ZM471 23H467V38H471H475V23H471ZM471 38V34H396V38V42H471V38ZM396 38H392V68H396H400V38H396ZM396 68V72H456V68V64H396V68ZM456 68H452V83H456H460V68H456ZM456 83V79H396V83V87H456V83ZM396 83H392V113H396H400V83H396ZM396 113V117H471V113V109H396V113ZM471 113H467V128H471H475V113H471ZM471 128V124H366V128V132H471V128ZM501 128H497V132H501V128ZM501 113V109H497V113H501ZM531 113V117H535V113H531ZM531 38H535V34H531V38ZM501 38H497V42H501V38ZM501 23V19H497V23H501ZM591 23H595V19H591V23ZM591 38V42H595V38H591ZM561 38V34H557V38H561ZM561 113H557V117H561V113ZM591 113H595V109H591V113ZM591 128V132H595V128H591ZM501 128H505V113H501H497V128H501ZM501 113V117H531V113V109H501V113ZM531 113H535V38H531H527V113H531ZM531 38V34H501V38V42H531V38ZM501 38H505V23H501H497V38H501ZM501 23V27H591V23V19H501V23ZM591 23H587V38H591H595V23H591ZM591 38V34H561V38V42H591V38ZM561 38H557V113H561H565V38H561ZM561 113V117H591V113V109H561V113ZM591 113H587V128H591H595V113H591ZM591 128V124H501V128V132H591V128ZM621 128H617V132H621V128ZM621 113H625V109H621V113ZM606 113H602V117H606V113ZM606 98V94H602V98H606ZM636 98H640V94H636V98ZM636 113H632V117H636V113ZM681 113V117H685V113H681ZM681 83H685V79H681V83ZM621 83H617V87H621V83ZM621 68H625V64H621V68ZM606 68H602V72H606V68ZM606 38V34H602V38H606ZM621 38V42H625V38H621ZM621 23V19H617V23H621ZM696 23H700V19H696V23ZM696 38H692V42H696V38ZM711 38H715V34H711V38ZM711 53V57H715V53H711ZM681 53H677V57H681V53ZM681 38H685V34H681V38ZM636 38V34H632V38H636ZM636 68H632V72H636V68ZM696 68H700V64H696V68ZM696 83H692V87H696V83ZM711 83H715V79H711V83ZM711 113V117H715V113H711ZM696 113V109H692V113H696ZM696 128V132H700V128H696ZM621 128H625V113H621H617V128H621ZM621 113V109H606V113V117H621V113ZM606 113H610V98H606H602V113H606ZM606 98V102H636V98V94H606V98ZM636 98H632V113H636H640V98H636ZM636 113V117H681V113V109H636V113ZM681 113H685V83H681H677V113H681ZM681 83V79H621V83V87H681V83ZM621 83H625V68H621H617V83H621ZM621 68V64H606V68V72H621V68ZM606 68H610V38H606H602V68H606ZM606 38V42H621V38V34H606V38ZM621 38H625V23H621H617V38H621ZM621 23V27H696V23V19H621V23ZM696 23H692V38H696H700V23H696ZM696 38V42H711V38V34H696V38ZM711 38H707V53H711H715V38H711ZM711 53V49H681V53V57H711V53ZM681 53H685V38H681H677V53H681ZM681 38V34H636V38V42H681V38ZM636 38H632V68H636H640V38H636ZM636 68V72H696V68V64H636V68ZM696 68H692V83H696H700V68H696ZM696 83V87H711V83V79H696V83ZM711 83H707V113H711H715V83H711ZM711 113V109H696V113V117H711V113ZM696 113H692V128H696H700V113H696ZM696 128V124H621V128V132H696V128Z" fill="#230542" mask="url(#path-3-outside-2_134_141)"/>
</g>
<defs>
<filter id="filter0_d_134_141" x="174.981" y="0.418968" width="53.0527" height="28.208" filterUnits="userSpaceOnUse" color-interpolation-filters="sRGB">
<feFlood flood-opacity="0" result="BackgroundImageFix"/>
<feColorMatrix in="SourceAlpha" type="matrix" values="0 0 0 0 0 0 0 0 0 0 0 0 0 0 0 0 0 0 127 0" result="hardAlpha"/>
<feOffset dx="6" dy="6"/>
<feGaussianBlur stdDeviation="4"/>
<feComposite in2="hardAlpha" operator="out"/>
<feColorMatrix type="matrix" values="0 0 0 0 0 0 0 0 0 0 0 0 0 0 0 0 0 0 0.35 0"/>
<feBlend mode="normal" in2="BackgroundImageFix" result="effect1_dropShadow_134_141"/>
<feBlend mode="normal" in="SourceGraphic" in2="effect1_dropShadow_134_141" result="shape"/>
</filter>
<filter id="filter1_d_134_141" x="0" y="17" width="729" height="129" filterUnits="userSpaceOnUse" color-interpolation-filters="sRGB">
<feFlood flood-opacity="0" result="BackgroundImageFix"/>
<feColorMatrix in="SourceAlpha" type="matrix" values="0 0 0 0 0 0 0 0 0 0 0 0 0 0 0 0 0 0 127 0" result="hardAlpha"/>
<feOffset dx="6" dy="6"/>
<feGaussianBlur stdDeviation="4"/>
<feComposite in2="hardAlpha" operator="out"/>
<feColorMatrix type="matrix" values="0 0 0 0 0 0 0 0 0 0 0 0 0 0 0 0 0 0 0.35 0"/>
<feBlend mode="normal" in2="BackgroundImageFix" result="effect1_dropShadow_134_141"/>
<feBlend mode="normal" in="SourceGraphic" in2="effect1_dropShadow_134_141" result="shape"/>
</filter>
<linearGradient id="paint0_linear_134_141" x1="355.333" y1="-9" x2="355.333" y2="124.333" gradientUnits="userSpaceOnUse">
<stop stop-color="#DB4E7C"/>
<stop offset="0.634615" stop-color="#E26966"/>
<stop offset="1" stop-color="#ED9046"/>
</linearGradient>
</defs>
</svg>
