<svg width="70" height="70" viewBox="0 0 70 70" fill="none" xmlns="http://www.w3.org/2000/svg">
<rect x="6" y="6" width="58" height="58" fill="#E4AB0D"/>
<path d="M67 3H70V67H67V70H3V67H0V3H3V0H67V3ZM9 9H6V61H9V64H61V61H64V9H61V6H9V9Z" fill="#865837"/>
<mask id="path-3-outside-1_266_3783" maskUnits="userSpaceOnUse" x="24" y="13" width="23" height="43" fill="black">
<rect fill="white" x="24" y="13" width="23" height="43"/>
<path d="M28.0648 42.8V30.5H28.5648C29.5982 30.5 30.6148 30.4 31.6148 30.2C32.6482 29.9667 33.4982 29.5667 34.1648 29C34.8648 28.4 35.2148 27.5667 35.2148 26.5C35.2148 25.5333 34.7648 24.7167 33.8648 24.05C32.9648 23.35 31.6648 23 29.9648 23C29.1648 23 28.4815 23.0333 27.9148 23.1C27.3482 23.1333 26.8315 23.1833 26.3648 23.25L25.4648 15.3C26.6315 15.0333 27.7815 14.85 28.9148 14.75C30.0815 14.65 31.4982 14.6 33.1648 14.6C35.3648 14.6 37.4148 14.95 39.3148 15.65C41.2482 16.35 42.7982 17.4833 43.9648 19.05C45.1648 20.5833 45.7648 22.65 45.7648 25.25C45.7648 28.1167 45.0315 30.5833 43.5648 32.65C42.0982 34.7167 39.9315 36 37.0648 36.5V42.8H28.0648ZM28.0648 54V47.2H37.0648V54H28.0648Z"/>
</mask>
<path d="M28.0648 42.8V30.5H28.5648C29.5982 30.5 30.6148 30.4 31.6148 30.2C32.6482 29.9667 33.4982 29.5667 34.1648 29C34.8648 28.4 35.2148 27.5667 35.2148 26.5C35.2148 25.5333 34.7648 24.7167 33.8648 24.05C32.9648 23.35 31.6648 23 29.9648 23C29.1648 23 28.4815 23.0333 27.9148 23.1C27.3482 23.1333 26.8315 23.1833 26.3648 23.25L25.4648 15.3C26.6315 15.0333 27.7815 14.85 28.9148 14.75C30.0815 14.65 31.4982 14.6 33.1648 14.6C35.3648 14.6 37.4148 14.95 39.3148 15.65C41.2482 16.35 42.7982 17.4833 43.9648 19.05C45.1648 20.5833 45.7648 22.65 45.7648 25.25C45.7648 28.1167 45.0315 30.5833 43.5648 32.65C42.0982 34.7167 39.9315 36 37.0648 36.5V42.8H28.0648ZM28.0648 54V47.2H37.0648V54H28.0648Z" fill="white"/>
<path d="M28.0648 42.8H26.8884V43.9765H28.0648V42.8ZM28.0648 30.5V29.3235H26.8884V30.5H28.0648ZM31.6148 30.2L31.8456 31.3536L31.8598 31.3508L31.874 31.3476L31.6148 30.2ZM34.1648 29L34.9268 29.8964L34.9305 29.8932L34.1648 29ZM33.8648 24.05L33.1426 24.9786L33.1535 24.9871L33.1646 24.9954L33.8648 24.05ZM27.9148 23.1L27.9839 24.2744L28.0182 24.2724L28.0523 24.2684L27.9148 23.1ZM26.3648 23.25L25.1958 23.3823L25.3321 24.586L26.5312 24.4146L26.3648 23.25ZM25.4648 15.3L25.2027 14.1531L24.1775 14.3874L24.2958 15.4323L25.4648 15.3ZM28.9148 14.75L28.8144 13.5778L28.8114 13.5781L28.9148 14.75ZM39.3148 15.65L38.9081 16.7539L38.9143 16.7562L39.3148 15.65ZM43.9648 19.05L43.0213 19.7527L43.0297 19.764L43.0384 19.7751L43.9648 19.05ZM37.0648 36.5L36.8627 35.341L35.8884 35.511V36.5H37.0648ZM37.0648 42.8V43.9765H38.2413V42.8H37.0648ZM28.0648 54H26.8884V55.1765H28.0648V54ZM28.0648 47.2V46.0235H26.8884V47.2H28.0648ZM37.0648 47.2H38.2413V46.0235H37.0648V47.2ZM37.0648 54V55.1765H38.2413V54H37.0648ZM28.0648 42.8H29.2413V30.5H28.0648H26.8884V42.8H28.0648ZM28.0648 30.5V31.6765H28.5648V30.5V29.3235H28.0648V30.5ZM28.5648 30.5V31.6765C29.6746 31.6765 30.7686 31.569 31.8456 31.3536L31.6148 30.2L31.3841 29.0464C30.4611 29.231 29.5217 29.3235 28.5648 29.3235V30.5ZM31.6148 30.2L31.874 31.3476C33.054 31.0811 34.0878 30.6095 34.9268 29.8964L34.1648 29L33.4029 28.1036C32.9086 28.5238 32.2423 28.8522 31.3557 29.0524L31.6148 30.2ZM34.1648 29L34.9305 29.8932C35.9335 29.0335 36.3913 27.8503 36.3913 26.5H35.2148H34.0384C34.0384 27.2831 33.7962 27.7665 33.3992 28.1068L34.1648 29ZM35.2148 26.5H36.3913C36.3913 25.098 35.7105 23.9531 34.5651 23.1046L33.8648 24.05L33.1646 24.9954C33.8192 25.4802 34.0384 25.9687 34.0384 26.5H35.2148ZM33.8648 24.05L34.5871 23.1213C33.401 22.1988 31.8035 21.8235 29.9648 21.8235V23V24.1765C31.5261 24.1765 32.5287 24.5012 33.1426 24.9786L33.8648 24.05ZM29.9648 23V21.8235C29.1356 21.8235 28.4037 21.8579 27.7774 21.9316L27.9148 23.1L28.0523 24.2684C28.5593 24.2088 29.1941 24.1765 29.9648 24.1765V23ZM27.9148 23.1L27.8458 21.9256C27.2529 21.9604 26.7031 22.0133 26.1985 22.0854L26.3648 23.25L26.5312 24.4146C26.9599 24.3534 27.4435 24.3062 27.9839 24.2744L27.9148 23.1ZM26.3648 23.25L27.5338 23.1177L26.6338 15.1677L25.4648 15.3L24.2958 15.4323L25.1958 23.3823L26.3648 23.25ZM25.4648 15.3L25.727 16.4469C26.8441 16.1916 27.941 16.017 29.0182 15.9219L28.9148 14.75L28.8114 13.5781C27.622 13.683 26.419 13.8751 25.2027 14.1531L25.4648 15.3ZM28.9148 14.75L29.0153 15.9222C30.1379 15.8259 31.519 15.7765 33.1648 15.7765V14.6V13.4235C31.4774 13.4235 30.0251 13.474 28.8144 13.5778L28.9148 14.75ZM33.1648 14.6V15.7765C35.2381 15.7765 37.1492 16.1059 38.9081 16.7539L39.3148 15.65L39.7216 14.5461C37.6805 13.7941 35.4916 13.4235 33.1648 13.4235V14.6ZM39.3148 15.65L38.9143 16.7562C40.643 17.3821 41.9996 18.3808 43.0213 19.7527L43.9648 19.05L44.9084 18.3473C43.5967 16.5859 41.8533 15.3179 39.7154 14.5438L39.3148 15.65ZM43.9648 19.05L43.0384 19.7751C44.0294 21.0414 44.5884 22.8249 44.5884 25.25H45.7648H46.9413C46.9413 22.4751 46.3002 20.1252 44.8913 18.3249L43.9648 19.05ZM45.7648 25.25H44.5884C44.5884 27.906 43.9128 30.1269 42.6054 31.9691L43.5648 32.65L44.5243 33.3309C46.1502 31.0397 46.9413 28.3273 46.9413 25.25H45.7648ZM43.5648 32.65L42.6054 31.9691C41.3452 33.7449 39.4729 34.8858 36.8627 35.341L37.0648 36.5L37.267 37.659C40.3902 37.1142 42.8512 35.6884 44.5243 33.3309L43.5648 32.65ZM37.0648 36.5H35.8884V42.8H37.0648H38.2413V36.5H37.0648ZM37.0648 42.8V41.6235H28.0648V42.8V43.9765H37.0648V42.8ZM28.0648 54H29.2413V47.2H28.0648H26.8884V54H28.0648ZM28.0648 47.2V48.3765H37.0648V47.2V46.0235H28.0648V47.2ZM37.0648 47.2H35.8884V54H37.0648H38.2413V47.2H37.0648ZM37.0648 54V52.8235H28.0648V54V55.1765H37.0648V54Z" fill="#865837" mask="url(#path-3-outside-1_266_3783)"/>
</svg>
